<?xml version="1.0" encoding="UTF-8"?>
<svg xmlns="http://www.w3.org/2000/svg" xmlns:xlink="http://www.w3.org/1999/xlink" viewBox="0 0 24 24" width="24px" height="24px">
<g id="surface87877185">
<path style=" stroke:none;fill-rule:nonzero;fill:rgb(100%,100%,100%);fill-opacity:1;" d="M 18 2 C 16.355469 2 15 3.355469 15 5 C 15 5.191406 15.023438 5.378906 15.058594 5.558594 L 7.921875 9.722656 C 7.398438 9.277344 6.730469 9 6 9 C 4.355469 9 3 10.355469 3 12 C 3 13.644531 4.355469 15 6 15 C 6.730469 15 7.398438 14.722656 7.921875 14.277344 L 15.058594 18.4375 C 15.023438 18.621094 15 18.808594 15 19 C 15 20.644531 16.355469 22 18 22 C 19.644531 22 21 20.644531 21 19 C 21 17.355469 19.644531 16 18 16 C 17.265625 16 16.601562 16.28125 16.078125 16.722656 L 8.941406 12.558594 C 8.976562 12.378906 9 12.191406 9 12 C 9 11.808594 8.976562 11.621094 8.941406 11.441406 L 16.078125 7.277344 C 16.601562 7.722656 17.269531 8 18 8 C 19.644531 8 21 6.644531 21 5 C 21 3.355469 19.644531 2 18 2 Z M 18 4 C 18.5625 4 19 4.4375 19 5 C 19 5.5625 18.5625 6 18 6 C 17.4375 6 17 5.5625 17 5 C 17 4.4375 17.4375 4 18 4 Z M 6 11 C 6.5625 11 7 11.4375 7 12 C 7 12.5625 6.5625 13 6 13 C 5.4375 13 5 12.5625 5 12 C 5 11.4375 5.4375 11 6 11 Z M 18 18 C 18.5625 18 19 18.4375 19 19 C 19 19.5625 18.5625 20 18 20 C 17.4375 20 17 19.5625 17 19 C 17 18.4375 17.4375 18 18 18 Z M 18 18 "/>
</g>
</svg>